# xmcd
#
# Track frame offsets: 
#        180
#        13513
#        28545
#        45500
#        56534
#        70203
#        80013
#        90388
#        102008
#        115094
#
# Disc length: 1691 seconds
#
# Revision: 0
# Processed by: cddbd v1.4PL0 Copyright (c) Steve Scherf et al.
# Submitted via: ExactAudioCopy v0.90a11
#
DISCID=6f06990a
DTITLE=Conway Twitty - The Rest Of The Best
DYEAR=1900
DGENRE=
TTITLE0=After All The Good Is Gone
TTITLE1=Lost Her Love On Our Last Date
TTITLE2=Don't Cry Joni
TTITLE3=As Soon As I Hang Up The Phone
TTITLE4=Baby's Gone
TTITLE5=I'll Try
TTITLE6=(I Can't Believe) She Gives It All To Me
TTITLE7=To See An Angel Cry
TTITLE8=Danny Boy
TTITLE9=I Can't See Me Without You
EXTD=
EXTT0=
EXTT1=
EXTT2=
EXTT3=
EXTT4=
EXTT5=
EXTT6=
EXTT7=
EXTT8=
EXTT9=
PLAYORDER=
